<?xml version="1.0" encoding="UTF-8" standalone="no"?>
<!-- Created with Inkscape (http://www.inkscape.org/) -->

<svg
   width="148.76019mm"
   height="148.76019mm"
   viewBox="0 0 148.76019 148.76019"
   version="1.1"
   id="svg1"
   inkscape:version="1.3.2 (091e20e, 2023-11-25)"
   sodipodi:docname="island-black-and-white.svg"
   xmlns:inkscape="http://www.inkscape.org/namespaces/inkscape"
   xmlns:sodipodi="http://sodipodi.sourceforge.net/DTD/sodipodi-0.dtd"
   xmlns="http://www.w3.org/2000/svg"
   xmlns:svg="http://www.w3.org/2000/svg">
  <sodipodi:namedview
     id="namedview1"
     pagecolor="#ffffff"
     bordercolor="#000000"
     borderopacity="0.25"
     inkscape:showpageshadow="2"
     inkscape:pageopacity="0.0"
     inkscape:pagecheckerboard="0"
     inkscape:deskcolor="#d1d1d1"
     inkscape:document-units="mm"
     inkscape:zoom="0.92737795"
     inkscape:cx="307.85722"
     inkscape:cy="455.58556"
     inkscape:window-width="1392"
     inkscape:window-height="1212"
     inkscape:window-x="0"
     inkscape:window-y="25"
     inkscape:window-maximized="0"
     inkscape:current-layer="layer1" />
  <defs
     id="defs1">
    <clipPath
       clipPathUnits="userSpaceOnUse"
       id="clipPath6">
      <circle
         style="display:inline;fill:#0000ff;stroke:none;stroke-width:12.3;stroke-dasharray:none;stroke-opacity:1"
         id="circle6"
         cx="321.92825"
         cy="378.9978"
         r="275.62164" />
    </clipPath>
  </defs>
  <g
     inkscape:label="Layer 1"
     inkscape:groupmode="layer"
     id="layer1"
     transform="translate(-23.547918,-28.045828)">
    <circle
       style="fill:none;fill-opacity:1;stroke:#000000;stroke-width:2.91042;stroke-dasharray:none;stroke-opacity:1"
       id="path1"
       cx="97.928017"
       cy="102.42593"
       r="72.924889" />
    <circle
       style="fill:#000000;fill-opacity:1;stroke:none;stroke-width:8.90211;stroke-opacity:1"
       id="circle4"
       cx="320.79877"
       cy="818.26837"
       r="275.62164"
       clip-path="url(#clipPath6)"
       inkscape:label="circle4"
       transform="matrix(0.26458333,0,0,0.26458333,12.751168,2.1494323)" />
    <path
       style="fill:#000000;fill-opacity:1;stroke:#ffffff;stroke-width:4.69847;stroke-dasharray:none;stroke-opacity:1;paint-order:stroke markers fill"
       d="m 92.730229,152.06324 c 11.396731,-21.88854 6.20418,-49.44915 4.882277,-76.32785 -1.321903,-26.878703 5.948564,-8.592372 6.389204,-3.084441 0.44063,5.507932 12.85962,46.278451 0.13171,80.207311 -1.59163,3.10793 -11.046728,2.93661 -11.403191,-0.79502 z"
       id="path5"
       sodipodi:nodetypes="csscc" />
    <path
       style="fill:#000000;fill-opacity:1;stroke:#ffffff;stroke-width:2.31722;stroke-dasharray:none;stroke-opacity:1"
       d="m 53.503779,96.754059 c 0,0 16.744109,-44.50408 41.41964,-35.691391 24.675531,8.812688 -19.167599,6.3892 -41.41964,35.691391 z"
       id="path7" />
    <path
       style="fill:#000000;fill-opacity:1;stroke:#ffffff;stroke-width:2.31722;stroke-dasharray:none;stroke-opacity:1"
       d="m 143.56825,80.582372 c 0,0 -19.82855,-31.725685 -34.81012,-18.726968 -14.981577,12.998718 24.01457,9.914276 34.81012,18.726968 z"
       id="path9"
       sodipodi:nodetypes="csc"
       inkscape:label="path9" />
    <path
       style="fill:#000000;fill-opacity:1;stroke:#ffffff;stroke-width:2.31734;stroke-opacity:1"
       d="m 121.22768,98.471319 c 0,0 2.20317,-44.724399 -17.40506,-40.097739 -19.608241,4.626663 14.54093,15.201892 17.40506,40.097739 z"
       id="path8" />
    <path
       style="fill:#000000;fill-opacity:1;stroke:#ffffff;stroke-width:2.31734;stroke-opacity:1"
       d="m 77.252761,102.3485 c 0,0 5.948566,-46.48694 22.252042,-44.283768 16.303477,2.203172 -18.286332,33.48822 -22.252042,44.283768 z"
       id="path6" />
  </g>
</svg>
