<?xml version="1.0" encoding="UTF-8" standalone="no"?>
<!-- Created with Inkscape (http://www.inkscape.org/) -->

<svg
   width="145.84979mm"
   height="145.84978mm"
   viewBox="0 0 145.84979 145.84978"
   version="1.1"
   id="svg1"
   inkscape:version="1.3.2 (091e20e, 2023-11-25)"
   sodipodi:docname="island-color.svg"
   xml:space="preserve"
   xmlns:inkscape="http://www.inkscape.org/namespaces/inkscape"
   xmlns:sodipodi="http://sodipodi.sourceforge.net/DTD/sodipodi-0.dtd"
   xmlns="http://www.w3.org/2000/svg"
   xmlns:svg="http://www.w3.org/2000/svg"><sodipodi:namedview
     id="namedview1"
     pagecolor="#ffffff"
     bordercolor="#000000"
     borderopacity="0.25"
     inkscape:showpageshadow="2"
     inkscape:pageopacity="0.0"
     inkscape:pagecheckerboard="0"
     inkscape:deskcolor="#d1d1d1"
     inkscape:document-units="mm"
     inkscape:zoom="0.92737795"
     inkscape:cx="290.60428"
     inkscape:cy="361.77267"
     inkscape:window-width="1432"
     inkscape:window-height="1026"
     inkscape:window-x="113"
     inkscape:window-y="193"
     inkscape:window-maximized="0"
     inkscape:current-layer="layer1" /><defs
     id="defs1"><clipPath
       clipPathUnits="userSpaceOnUse"
       id="clipPath6"><circle
         style="display:inline;fill:#0000ff;stroke:none;stroke-width:12.3;stroke-dasharray:none;stroke-opacity:1"
         id="circle6"
         cx="321.92825"
         cy="378.9978"
         r="275.62164" /></clipPath></defs><g
     inkscape:label="Layer 1"
     inkscape:groupmode="layer"
     id="layer1"
     transform="translate(-28.289884,-6.9906464)"><circle
       style="fill:#d5f2ff;fill-opacity:1;stroke:none;stroke-width:3.25437;stroke-dasharray:none;stroke-opacity:1"
       id="path1"
       cx="101.21478"
       cy="79.915535"
       r="72.924889" /><circle
       style="fill:#fbd872;fill-opacity:1;stroke:none;stroke-width:8.90211;stroke-opacity:1"
       id="circle4"
       cx="320.79877"
       cy="818.26837"
       r="275.62164"
       clip-path="url(#clipPath6)"
       inkscape:label="circle4"
       transform="matrix(0.26458333,0,0,0.26458333,16.037927,-20.360963)" /><path
       style="fill:#b38f55;fill-opacity:1;stroke:none;stroke-width:2.31734;stroke-opacity:1"
       d="m 96.016987,129.55285 c 11.396743,-21.88854 6.204183,-49.449152 4.882283,-76.327855 -1.321913,-26.878703 5.94856,-8.592373 6.3892,-3.084441 0.44063,5.507932 12.85963,46.278456 0.13171,80.207306 -1.59162,3.10793 -11.046733,2.93662 -11.403193,-0.79501 z"
       id="path5"
       sodipodi:nodetypes="csscc" /><path
       style="fill:#52b083;fill-opacity:1;stroke:none;stroke-width:2.31734;stroke-opacity:1"
       d="m 56.790537,74.243664 c 0,0 16.74411,-44.50408 41.41964,-35.691391 24.675533,8.812688 -19.1676,6.3892 -41.41964,35.691391 z"
       id="path7" /><path
       style="fill:#529b83;fill-opacity:1;stroke:none;stroke-width:2.31734;stroke-opacity:1"
       d="m 146.85501,58.071976 c 0,0 -19.82855,-31.725684 -34.81012,-18.726967 -14.981573,12.998717 24.01458,9.914276 34.81012,18.726967 z"
       id="path9"
       sodipodi:nodetypes="csc"
       inkscape:label="path9" /><path
       style="fill:#52c883;fill-opacity:1;stroke:none;stroke-width:2.31734;stroke-opacity:1"
       d="m 124.51444,75.960924 c 0,0 2.20317,-44.724399 -17.40506,-40.097739 -19.608243,4.626663 14.54093,15.201892 17.40506,40.097739 z"
       id="path8" /><path
       style="fill:#52db83;fill-opacity:1;stroke:none;stroke-width:2.31734;stroke-opacity:1"
       d="m 80.539517,79.838101 c 0,0 5.94857,-46.486937 22.252053,-44.283764 16.30347,2.203172 -18.286343,33.488219 -22.252053,44.283764 z"
       id="path6" /></g></svg>
